<svg id="OBJECTS" xmlns="http://www.w3.org/2000/svg" viewBox="0 0 393.89 334.01"><defs><style>.cls-1{fill:#c4c4c4;}.cls-2{fill:#969696;}.cls-3{fill:#ccc;}.cls-4{fill:#b7b7b7;}.cls-5{fill:#dd4d14;}.cls-6{fill:#b23012;}.cls-7{fill:#aaa;}.cls-8{fill:#939393;}.cls-9{fill:#6d6d6d;}.cls-10{fill:#ededed;}.cls-11{fill:#ed701b;}.cls-12{fill:#d36113;}.cls-13{fill:#bc5917;}.cls-14{fill:#4c4c4c;}.cls-15{fill:#dd6819;}</style></defs><title>404</title><polygon class="cls-1" points="392.42 190.06 271.46 118.44 255.91 127.89 208.3 101.05 174.47 111.38 216.29 136.44 179.81 143.43 149.18 127.76 122.12 139.16 164.29 167.94 151.63 176.44 287.41 254.69 319.42 233.9 296.63 215.73 328.55 198.69 355.75 213.24 387.09 201.84 377.13 196.23 392.42 190.06"/><polygon class="cls-2" points="378.86 99.67 378.82 99.7 378.12 100.2 375.99 102.07 349.3 84.84 329.47 73.59 297.08 55.2 277.25 43.93 244.87 25.55 225.04 14.29 219.69 11.26 221.89 9.66 222.59 10.04 242.4 21.21 274.77 39.44 294.58 50.6 326.96 68.82 346.77 79.98 373.36 96.13 378.86 99.67"/><polygon class="cls-3" points="375.99 102.07 380.61 130.56 355.03 117.85 335.18 106.52 302.78 87.97 282.93 76.64 250.52 58.12 230.69 46.77 219.69 40.48 219.69 11.26 225.04 14.29 244.87 25.55 277.25 43.93 297.08 55.2 329.47 73.59 349.3 84.84 375.99 102.07"/><polygon class="cls-4" points="378.86 99.67 381.33 114.37 381.34 114.41 383.32 128.27 380.61 130.56 375.99 102.07 378.12 100.2 378.86 99.67"/><polygon class="cls-5" points="230.69 46.77 219.69 40.48 219.69 11.26 225.04 14.29 230.69 46.77"/><polygon class="cls-5" points="282.93 76.64 250.52 58.12 244.87 25.55 277.25 43.93 282.93 76.64"/><polygon class="cls-5" points="335.18 106.52 302.78 87.97 297.08 55.2 329.47 73.59 335.18 106.52"/><polygon class="cls-5" points="375.99 102.07 380.61 130.56 355.03 117.85 349.3 84.84 375.99 102.07"/><polygon class="cls-6" points="225.04 14.29 219.69 11.26 221.89 9.66 222.59 10.04 225.04 14.29"/><polygon class="cls-6" points="277.25 43.93 244.87 25.55 242.4 21.21 274.77 39.44 277.25 43.93"/><polygon class="cls-6" points="329.47 73.59 297.08 55.2 294.58 50.6 326.96 68.82 329.47 73.59"/><polygon class="cls-6" points="378.87 99.71 381.33 114.37 381.34 114.41 383.32 128.27 380.61 130.56 375.99 102.07 378.12 100.2 378.82 99.7 378.87 99.71"/><polygon class="cls-6" points="378.82 99.7 378.12 100.2 375.99 102.07 349.3 84.84 346.77 79.98 373.36 96.13 378.82 99.7"/><polygon class="cls-2" points="389.42 146.56 389.39 146.59 388.69 147.09 386.56 148.96 359.87 131.73 340.04 120.48 307.64 102.09 287.81 90.82 255.44 72.44 235.61 61.18 230.26 58.15 232.46 56.55 233.15 56.93 252.97 68.1 285.34 86.33 305.15 97.48 337.52 115.71 357.34 126.87 383.93 143.02 389.42 146.56"/><polygon class="cls-3" points="386.56 148.96 391.18 177.45 365.6 164.74 345.74 153.41 313.35 134.86 293.5 123.53 261.09 105.01 241.25 93.65 230.26 87.37 230.26 58.15 235.61 61.18 255.44 72.44 287.81 90.82 307.64 102.09 340.04 120.48 359.87 131.73 386.56 148.96"/><polygon class="cls-4" points="389.42 146.56 391.89 161.26 391.9 161.3 393.89 175.16 391.18 177.45 386.56 148.96 388.69 147.09 389.42 146.56"/><polygon class="cls-5" points="241.25 93.65 230.26 87.37 230.26 58.15 235.61 61.18 241.25 93.65"/><polygon class="cls-5" points="293.5 123.53 261.09 105.01 255.44 72.44 287.81 90.82 293.5 123.53"/><polygon class="cls-5" points="345.74 153.41 313.35 134.86 307.64 102.09 340.04 120.48 345.74 153.41"/><polygon class="cls-5" points="386.56 148.96 391.18 177.45 365.6 164.74 359.87 131.73 386.56 148.96"/><polygon class="cls-6" points="235.61 61.18 230.26 58.15 232.46 56.55 233.15 56.93 235.61 61.18"/><polygon class="cls-6" points="287.81 90.82 255.44 72.44 252.97 68.1 285.34 86.33 287.81 90.82"/><polygon class="cls-6" points="340.04 120.48 307.64 102.09 305.15 97.48 337.52 115.71 340.04 120.48"/><polygon class="cls-6" points="389.43 146.6 391.89 161.26 391.9 161.3 393.89 175.16 391.18 177.45 386.56 148.96 388.69 147.09 389.39 146.59 389.43 146.6"/><polygon class="cls-6" points="389.39 146.59 388.69 147.09 386.56 148.96 359.87 131.73 357.34 126.87 383.93 143.02 389.39 146.59"/><polygon class="cls-7" points="390.08 189.74 387.47 191.14 381.38 187.88 342.45 76.28 350.19 76.91 390.08 189.74"/><polygon class="cls-8" points="390.08 189.74 387.47 191.14 347.53 77.42 350.19 76.91 390.08 189.74"/><polygon class="cls-7" points="275.79 124.33 273.17 125.73 267.08 122.47 228.16 10.87 235.9 11.49 275.79 124.33"/><polygon class="cls-8" points="275.79 124.33 273.17 125.73 233.24 12.01 235.9 11.49 275.79 124.33"/><polygon class="cls-4" points="174.38 165.27 227.87 9.04 233.32 12.01 180.78 168.86 174.38 165.27"/><polygon class="cls-8" points="180.78 168.86 183.48 168.51 235.89 11.5 233.32 12.01 180.78 168.86"/><polygon class="cls-9" points="227.87 9.04 230.25 8.52 235.89 11.5 233.32 12.01 227.87 9.04"/><polygon class="cls-4" points="288.63 230.65 342.12 74.42 347.57 77.39 295.02 234.24 288.63 230.65"/><polygon class="cls-8" points="295.02 234.24 297.73 233.89 350.14 76.88 347.57 77.39 295.02 234.24"/><polygon class="cls-9" points="342.12 74.42 344.5 73.9 350.14 76.88 347.57 77.39 342.12 74.42"/><path class="cls-10" d="M425.39,143.7,417,173.75l-3.89-1.92-15.53-9.07L360.5,141.12,345,132.07l-37.09-21.64-15.53-9.05-25.7-15c-1,0,4.26-31.77,4.26-31.77l15.32,9,15.53,9.08,37.09,21.69,15.53,9.08,37.11,21.69L407,134.17Z" transform="translate(-70.2 -26.56)"/><path class="cls-4" d="M429.36,142.19l-9,30.66-3.3.9c-.07-.09,8.36-30.05,8.36-30.05Z" transform="translate(-70.2 -26.56)"/><polygon class="cls-4" points="359.15 115.62 355.19 117.14 336.82 107.61 321.29 98.54 284.18 76.84 268.64 67.77 231.56 46.08 216.02 37 200.71 28.05 203.71 26.27 211.06 30.53 226.57 39.52 263.66 61.02 279.17 70.01 316.26 91.51 331.77 100.5 359.15 115.62"/><path class="cls-11" d="M292.35,101.38l-25.7-15c-1,0,4.26-31.77,4.26-31.77l15.32,9Z" transform="translate(-70.2 -26.56)"/><polygon class="cls-11" points="274.77 105.5 237.68 83.87 231.56 46.08 268.64 67.77 274.77 105.5"/><polygon class="cls-11" points="327.41 136.19 290.3 114.56 284.18 76.84 321.29 98.54 327.41 136.19"/><polygon class="cls-11" points="355.19 117.14 346.82 147.19 342.94 145.27 336.82 107.61 355.19 117.14"/><polygon class="cls-12" points="216.02 37 200.71 28.05 203.71 26.27 211.06 30.53 216.02 37"/><polygon class="cls-12" points="268.64 67.77 231.56 46.08 226.57 39.52 263.66 61.02 268.64 67.77"/><polygon class="cls-12" points="321.29 98.54 284.18 76.84 279.17 70.01 316.26 91.51 321.29 98.54"/><path class="cls-13" d="M429.36,142.19l-9,30.66-3.3.9c-.07-.09,8.36-30.05,8.36-30.05Z" transform="translate(-70.2 -26.56)"/><polygon class="cls-12" points="359.15 115.62 355.19 117.14 336.82 107.61 331.77 100.5 359.15 115.62"/><path class="cls-10" d="M403.89,192.28l-8.37,30.05-3.88-1.92-15.53-9.07L339,189.7l-15.53-9L286.38,159l-15.53-9-25.7-15c-1,0,4.26-31.77,4.26-31.77l15.31,9,15.54,9.08,37.08,21.69L332.88,152,370,173.68l15.53,9.07Z" transform="translate(-70.2 -26.56)"/><path class="cls-4" d="M407.85,190.77l-9,30.66-3.3.9c-.06-.09,8.37-30.05,8.37-30.05Z" transform="translate(-70.2 -26.56)"/><polygon class="cls-4" points="337.65 164.2 333.68 165.72 315.31 156.19 299.78 147.12 262.67 125.42 247.14 116.35 210.05 94.66 194.52 85.58 179.21 76.63 182.2 74.85 189.55 79.11 205.07 88.1 242.15 109.6 257.67 118.59 294.75 140.09 310.27 149.08 337.65 164.2"/><path class="cls-11" d="M270.85,150l-25.7-15c-1,0,4.26-31.77,4.26-31.77l15.31,9Z" transform="translate(-70.2 -26.56)"/><polygon class="cls-11" points="253.26 154.09 216.17 132.45 210.05 94.66 247.14 116.35 253.26 154.09"/><polygon class="cls-11" points="305.9 184.77 268.8 163.14 262.67 125.42 299.78 147.12 305.9 184.77"/><polygon class="cls-11" points="333.68 165.72 325.32 195.77 321.44 193.85 315.31 156.19 333.68 165.72"/><polygon class="cls-12" points="194.52 85.58 179.21 76.63 182.2 74.85 189.55 79.11 194.52 85.58"/><polygon class="cls-12" points="247.14 116.35 210.05 94.66 205.07 88.1 242.15 109.6 247.14 116.35"/><polygon class="cls-12" points="299.78 147.12 262.67 125.42 257.67 118.59 294.75 140.09 299.78 147.12"/><path class="cls-13" d="M407.85,190.77l-9,30.66-3.3.9c-.06-.09,8.37-30.05,8.37-30.05Z" transform="translate(-70.2 -26.56)"/><polygon class="cls-12" points="337.65 164.2 333.68 165.72 315.31 156.19 310.27 149.08 337.65 164.2"/><path class="cls-14" d="M308.72,31.83c0,3.35-1.43,6.08-3.26,6.27a.75.75,0,0,1-.21,0c-1.91,0-3.46-2.82-3.46-6.29a9.2,9.2,0,0,1,.11-1.45c.37-2.52,1.74-3.82,3.35-3.82a.51.51,0,0,1,.21,0c1.53.09,2.8,1.38,3.15,3.79A10.57,10.57,0,0,1,308.72,31.83Z" transform="translate(-70.2 -26.56)"/><polygon class="cls-14" points="235.26 0 235.26 11.56 229.64 11.56 229.76 3.81 229.8 0 235.26 0"/><path class="cls-9" d="M308.61,30.38H300l.05-3.82h5.45v0C307,26.68,308.26,28,308.61,30.38Z" transform="translate(-70.2 -26.56)"/><path class="cls-9" d="M303.48,31.84c0,3.47-1.55,6.28-3.47,6.28s-3.47-2.81-3.47-6.28,1.56-5.27,3.47-5.27S303.48,28.37,303.48,31.84Z" transform="translate(-70.2 -26.56)"/><path class="cls-4" d="M303.13,31.89c0,3.12-1.4,5.65-3.12,5.65S296.9,35,296.9,31.89s1.39-4.74,3.11-4.74S303.13,28.77,303.13,31.89Z" transform="translate(-70.2 -26.56)"/><path class="cls-6" d="M302.43,32a6.51,6.51,0,0,1-.67,3s0,0,0,0A2.09,2.09,0,0,1,300,36.41c-1.34,0-2.43-2-2.43-4.41a3.91,3.91,0,0,1,1.2-3.26v0A2.07,2.07,0,0,1,300,28.3C301.35,28.3,302.43,29.55,302.43,32Z" transform="translate(-70.2 -26.56)"/><path class="cls-5" d="M302.43,32a6.51,6.51,0,0,1-.67,3s0,0,0,0a1.5,1.5,0,0,1-.95.34c-1.34,0-2.42-2-2.42-4.41a5.67,5.67,0,0,1,.41-2.24v0A2.07,2.07,0,0,1,300,28.3C301.35,28.3,302.43,29.55,302.43,32Z" transform="translate(-70.2 -26.56)"/><path class="cls-14" d="M424.15,96.92c0,3.64-1.55,6.6-3.54,6.8a.56.56,0,0,1-.22,0c-2.08,0-3.77-3.06-3.77-6.83a9.53,9.53,0,0,1,.13-1.58c.4-2.73,1.88-4.14,3.64-4.14a.56.56,0,0,1,.22,0c1.66.1,3,1.5,3.42,4.11A10.81,10.81,0,0,1,424.15,96.92Z" transform="translate(-70.2 -26.56)"/><polygon class="cls-14" points="350.41 64.64 350.41 77.18 344.31 77.18 344.44 68.78 344.49 64.64 350.41 64.64"/><path class="cls-9" d="M424,95.34h-9.39l.05-4.14h5.92v0C422.27,91.33,423.65,92.73,424,95.34Z" transform="translate(-70.2 -26.56)"/><path class="cls-9" d="M418.46,96.93c0,3.76-1.68,6.82-3.76,6.82s-3.77-3.06-3.77-6.82,1.69-5.73,3.77-5.73S418.46,93.16,418.46,96.93Z" transform="translate(-70.2 -26.56)"/><path class="cls-4" d="M418.08,97c0,3.39-1.52,6.13-3.38,6.13s-3.39-2.74-3.39-6.13,1.52-5.14,3.39-5.14S418.08,93.6,418.08,97Z" transform="translate(-70.2 -26.56)"/><path class="cls-6" d="M417.33,97.1a7.13,7.13,0,0,1-.73,3.28,0,0,0,0,1,0,0,2.27,2.27,0,0,1-1.88,1.48c-1.45,0-2.63-2.16-2.63-4.79,0-1.78.52-3,1.3-3.54v0a2.2,2.2,0,0,1,1.33-.45C416.15,93.08,417.33,94.44,417.33,97.1Z" transform="translate(-70.2 -26.56)"/><path class="cls-5" d="M417.33,97.1a7.13,7.13,0,0,1-.73,3.28,0,0,0,0,1,0,0,1.61,1.61,0,0,1-1,.38c-1.46,0-2.64-2.14-2.64-4.8a6.2,6.2,0,0,1,.45-2.43v0a2.2,2.2,0,0,1,1.33-.45C416.15,93.08,417.33,94.44,417.33,97.1Z" transform="translate(-70.2 -26.56)"/><path class="cls-1" d="M436.2,344l-1.66-1.27-.12-.09-.37-.29h0c-1.74-1.25-3.34-7-5.92-7.69l-18.67-.34-8.42-5-1.81-1.09-4.66-2.79L390.5,323l-5.17-3.1-2-1.21-13.65-8.19a.87.87,0,0,1-.1-.08,13.38,13.38,0,0,0-4.27-1.87,24.26,24.26,0,0,0-3.42-.64,18.31,18.31,0,0,0-2.06-.11h-.71c-3.48.05-5,1.15-3.58,2.5h0l8.28,8.7,1.13,1.2,3,3.14,2.33,2.44,2.72,2.86h0l1,1.06,7.94,7.06-4,4.39c-.72.81.18,2.16,1.93,3.51h0l1.77,1.35h0c1.8,1.36,30.36,13.82,33.15,14.55l3.14-1.7s9-1.72,11.34-3.77l8.7-7.56c.67-.58.33-1.54-.67-2.57l.07-.08-1.07-.82Z" transform="translate(-70.2 -26.56)"/><path class="cls-12" d="M387.36,348l18.79,10.39a17.49,17.49,0,0,0,16.62.16L442,348.42a5.57,5.57,0,0,0,.23-9.72l-19.34-11.42a16.68,16.68,0,0,0-16.94,0l-18.71,11A5.57,5.57,0,0,0,387.36,348Z" transform="translate(-70.2 -26.56)"/><polygon class="cls-12" points="314.28 316.6 314.28 314.72 374.75 314.72 374.75 318.23 361.21 326.33 345.08 330.16 324.69 324.97 314.28 316.6"/><path class="cls-11" d="M442,346.57,422.77,356.7a17.49,17.49,0,0,1-16.62-.17l-14-7.75-4.8-2.65a5.55,5.55,0,0,1-.13-9.66l16.87-10,1.84-1.09a16.7,16.7,0,0,1,16.95,0l19.33,11.41A5.58,5.58,0,0,1,442,346.57Z" transform="translate(-70.2 -26.56)"/><path class="cls-15" d="M421.55,346.75l-29.39,2-4.8-2.65a5.55,5.55,0,0,1-.13-9.66l16.87-10,15.56-.09Z" transform="translate(-70.2 -26.56)"/><path class="cls-12" d="M432.28,338c0,3.47-3.53,6.5-8.8,8.16a31.27,31.27,0,0,1-9.32,1.36c-10,0-18.12-4.27-18.12-9.52a3.84,3.84,0,0,1,.07-.76c.73-4.89,8.53-8.75,18.05-8.75a32.66,32.66,0,0,1,5.89.53c6.38,1.14,11.14,4.1,12.06,7.71A4.57,4.57,0,0,1,432.28,338Z" transform="translate(-70.2 -26.56)"/><path class="cls-12" d="M432.2,336.7h-.09l-7.93.12-2.55,0h-.21l-13.6.18-3,0-8.71.13H396l1.43-5.36.44-1.66,2-7.36.4-1.46v0l1.06-4,.89-3.37,1.17-4.34.45-1.66,3.2-12H421.3l3.2,12,.46,1.69,1.15,4.33.91,3.39,1.05,3.89.4,1.53,2,7.28v0l.46,1.7Z" transform="translate(-70.2 -26.56)"/><path class="cls-15" d="M432.28,338c0,3.47-3.53,6.5-8.8,8.16-.49-2.47-1.07-5.36-1.7-8.5l-.15-.77c-.5-2.51-1-5.16-1.58-7.87l-.19-1c-.52-2.55-1-5.17-1.55-7.75h0q-.69-3.47-1.38-6.84c-1.35-6.74-2.6-13-3.5-17.41h7.87l3.2,12,.46,1.69,1.15,4.33.91,3.39,1.05,3.89.4,1.53,2,7.28v0l.46,1.7,1.31,4.9h-.09A4.57,4.57,0,0,1,432.28,338Z" transform="translate(-70.2 -26.56)"/><path class="cls-12" d="M421.3,296.4c0,2.07-3.19,3.75-7.14,3.75a10,10,0,0,1-5.74-1.55,2.78,2.78,0,0,1-1.38-2.2c0-2.06,3.19-3.74,7.12-3.74,3.12,0,5.77,1,6.74,2.52A2.24,2.24,0,0,1,421.3,296.4Z" transform="translate(-70.2 -26.56)"/><path class="cls-4" d="M421.78,337.63a27.88,27.88,0,0,1-7.62,1,27,27,0,0,1-9.34-1.56c-4.13-1.52-6.85-4-6.91-6.89l2-7.36.4-1.46c0,4,6.23,7.28,13.89,7.28a24.43,24.43,0,0,0,5.7-.65l.19,1c.55,2.71,1.08,5.36,1.58,7.87Z" transform="translate(-70.2 -26.56)"/><path class="cls-10" d="M430.43,330.08v0c0,2.73-2.44,5.16-6.25,6.72a17.31,17.31,0,0,1-2.4.81l-.15-.77c-.5-2.51-1-5.16-1.58-7.87l-.19-1c4.84-1.14,8.21-3.68,8.21-6.65v-.08l.4,1.53Z" transform="translate(-70.2 -26.56)"/><path class="cls-4" d="M418.31,320.24h0a21.12,21.12,0,0,1-4.15.39c-6.61,0-12-2.8-12-6.28,0-.12,0-.24,0-.34l1.17-4.34.45-1.66a.47.47,0,0,0,0,.16c0,3,4.63,5.43,10.34,5.43a16.55,16.55,0,0,0,2.77-.21Q417.62,316.77,418.31,320.24Z" transform="translate(-70.2 -26.56)"/><path class="cls-10" d="M426.14,314.36c0,2.72-3.27,5-7.83,5.88q-.69-3.47-1.38-6.84c4.38-.61,7.58-2.71,7.58-5.22a1.48,1.48,0,0,0,0-.21l.46,1.69,1.15,4.33A2.31,2.31,0,0,1,426.14,314.36Z" transform="translate(-70.2 -26.56)"/><path class="cls-15" d="M414.16,292.66s.27,0,.75,0a11.21,11.21,0,0,1,2,.19,9,9,0,0,1,2.67.95,3.3,3.3,0,0,1,1.89,2.62,2.4,2.4,0,0,1-.18.84,3.58,3.58,0,0,1-.45.73,4.53,4.53,0,0,1-1.27,1,8.57,8.57,0,0,1-2.66.95,12.46,12.46,0,0,1-2,.2h-.75l.75,0a14.59,14.59,0,0,0,1.95-.32,9.31,9.31,0,0,0,2.56-1,4.52,4.52,0,0,0,1.17-1,2.07,2.07,0,0,0,0-2.79,4.73,4.73,0,0,0-1.17-1,9.31,9.31,0,0,0-2.56-1,14.84,14.84,0,0,0-1.95-.32Z" transform="translate(-70.2 -26.56)"/><path class="cls-1" d="M153.11,226.46l-1.69-1.3-.13-.09-.38-.29h0c-1.78-1.28-3.41-7.14-6.05-7.86l-19.06-.35-8.59-5.14-1.86-1.12-4.76-2.84L106.45,205l-5.27-3.16-2.08-1.24-13.93-8.35-.1-.09a13.63,13.63,0,0,0-4.36-1.91,24,24,0,0,0-3.49-.65,19.79,19.79,0,0,0-2.11-.12c-.47,0-.72,0-.72,0h0c-3.56,0-5.08,1.17-3.66,2.55h0l8.46,8.88,1.16,1.22,3,3.21,2.37,2.49,2.78,2.93h0l1,1.08,4.06,4.5a6.34,6.34,0,0,1,1,7.1l-.16.33c-.74.82.17,2.21,2,3.58h0l1.8,1.38h0c1.83,1.39,30.21,13.87,33.06,14.62l3.21-1.74s9.17-1.76,11.58-3.85l8.88-7.71c.69-.6.33-1.58-.69-2.63l.07-.09-1.09-.83Z" transform="translate(-70.2 -26.56)"/><path class="cls-12" d="M108.82,232.46l16,8.84a14.89,14.89,0,0,0,14.15.15l16.37-8.63a4.74,4.74,0,0,0,.19-8.28l-16.46-9.72a14.18,14.18,0,0,0-14.43,0l-15.93,9.4A4.74,4.74,0,0,0,108.82,232.46Z" transform="translate(-70.2 -26.56)"/><polygon class="cls-12" points="36.17 201.78 36.17 200.18 87.66 200.18 87.66 203.16 76.13 210.07 62.4 213.33 45.03 208.9 36.17 201.78"/><path class="cls-11" d="M155.34,231.24,139,239.86a14.89,14.89,0,0,1-14.15-.14l-11.91-6.59-4.09-2.26a4.74,4.74,0,0,1-.11-8.23l14.36-8.48,1.57-.93a14.23,14.23,0,0,1,14.43,0L155.54,223A4.76,4.76,0,0,1,155.34,231.24Z" transform="translate(-70.2 -26.56)"/><path class="cls-15" d="M137.93,231.4l-25,1.73-4.09-2.26a4.74,4.74,0,0,1-.11-8.23l14.36-8.48,13.25-.08Z" transform="translate(-70.2 -26.56)"/><path class="cls-12" d="M147.07,223.92c0,3-3,5.53-7.5,7a26.62,26.62,0,0,1-7.93,1.15c-8.52,0-15.42-3.63-15.42-8.1a3.39,3.39,0,0,1,0-.64c.63-4.17,7.26-7.46,15.37-7.46a27.81,27.81,0,0,1,5,.45c5.43,1,9.48,3.5,10.27,6.57A4,4,0,0,1,147.07,223.92Z" transform="translate(-70.2 -26.56)"/><path class="cls-12" d="M147,222.84h-.07l-6.75.1L138,223h-.18l-11.57.16-2.56,0-7.42.12h0l1.21-4.57.37-1.41,1.68-6.27.33-1.25h0l.91-3.37.76-2.87,1-3.7.38-1.41,2.73-10.24h12.14l2.73,10.2.39,1.44,1,3.68.77,2.88.89,3.32.35,1.3,1.67,6.2v0l.39,1.44Z" transform="translate(-70.2 -26.56)"/><path class="cls-15" d="M147.07,223.92c0,3-3,5.53-7.5,7-.41-2.11-.9-4.57-1.44-7.24,0-.21-.09-.43-.13-.66-.43-2.13-.87-4.39-1.34-6.7l-.17-.84c-.43-2.17-.88-4.4-1.32-6.6h0q-.58-3-1.17-5.82c-1.15-5.74-2.21-11-3-14.82h6.7l2.73,10.2.39,1.44,1,3.68.77,2.88.89,3.32.35,1.3,1.67,6.2v0l.39,1.44,1.11,4.18h-.07A4,4,0,0,1,147.07,223.92Z" transform="translate(-70.2 -26.56)"/><path class="cls-12" d="M137.72,188.52c0,1.77-2.71,3.2-6.08,3.2a8.6,8.6,0,0,1-4.89-1.32,2.38,2.38,0,0,1-1.17-1.88c0-1.75,2.71-3.18,6.06-3.18,2.66,0,4.92.89,5.74,2.14A1.87,1.87,0,0,1,137.72,188.52Z" transform="translate(-70.2 -26.56)"/><path class="cls-4" d="M138.13,223.63a23.87,23.87,0,0,1-6.49.86,23,23,0,0,1-7.95-1.33c-3.52-1.29-5.83-3.44-5.89-5.86l1.68-6.27.33-1.25c0,3.43,5.31,6.2,11.83,6.2a20.57,20.57,0,0,0,4.85-.55l.17.84c.47,2.31.91,4.57,1.34,6.7C138,223.2,138.09,223.42,138.13,223.63Z" transform="translate(-70.2 -26.56)"/><path class="cls-10" d="M145.5,217.2v0c0,2.32-2.08,4.39-5.32,5.72a14.93,14.93,0,0,1-2.05.69c0-.21-.09-.43-.13-.66-.43-2.13-.87-4.39-1.34-6.7l-.17-.84c4.12-1,7-3.14,7-5.66v-.07l.35,1.3Z" transform="translate(-70.2 -26.56)"/><path class="cls-4" d="M135.17,208.82h0a18,18,0,0,1-3.53.34c-5.63,0-10.19-2.39-10.19-5.35a2.36,2.36,0,0,1,0-.29l1-3.7.38-1.41a.57.57,0,0,0,0,.13c0,2.56,3.94,4.63,8.8,4.63A15,15,0,0,0,134,203Q134.58,205.87,135.17,208.82Z" transform="translate(-70.2 -26.56)"/><path class="cls-10" d="M141.84,203.82c0,2.31-2.78,4.26-6.67,5q-.58-3-1.17-5.82c3.73-.52,6.46-2.31,6.46-4.45a1,1,0,0,0,0-.17l.39,1.44,1,3.68C141.83,203.6,141.84,203.72,141.84,203.82Z" transform="translate(-70.2 -26.56)"/><path class="cls-15" d="M131.64,185.34h.64a10.37,10.37,0,0,1,1.69.17,7.33,7.33,0,0,1,2.27.81,2.77,2.77,0,0,1,1.62,2.23,2.18,2.18,0,0,1-.16.72,2.79,2.79,0,0,1-.38.62,4.06,4.06,0,0,1-1.08.87,7,7,0,0,1-2.27.8,9.35,9.35,0,0,1-1.69.17h-.64l.64,0a14.64,14.64,0,0,0,1.66-.28,7.7,7.7,0,0,0,2.18-.86,3.75,3.75,0,0,0,1-.83,1.85,1.85,0,0,0,.46-1.2,1.89,1.89,0,0,0-.46-1.17,3.79,3.79,0,0,0-1-.83,8.35,8.35,0,0,0-2.18-.86,12.37,12.37,0,0,0-1.66-.27Z" transform="translate(-70.2 -26.56)"/></svg>