<?xml version="1.0" standalone="no"?>
<!DOCTYPE svg PUBLIC "-//W3C//DTD SVG 20010904//EN"
 "http://www.w3.org/TR/2001/REC-SVG-20010904/DTD/svg10.dtd">
<svg version="1.0" xmlns="http://www.w3.org/2000/svg"
 width="260.000000pt" height="260.000000pt" viewBox="0 0 260.000000 260.000000"
 preserveAspectRatio="xMidYMid meet">
<metadata>
Created by potrace 1.11, written by Peter Selinger 2001-2013
</metadata>
<g transform="translate(0.000000,260.000000) scale(0.100000,-0.100000)"
fill="#000000" stroke="none">
<path d="M492 1528 l3 -663 32 -95 c74 -216 220 -385 416 -480 113 -54 183
-71 322 -77 158 -7 246 11 380 77 55 27 113 60 128 73 l28 23 -93 -24 c-79
-20 -117 -24 -248 -24 -136 -1 -167 2 -252 25 -250 66 -413 223 -474 457 -15
57 -18 144 -21 718 l-5 652 -109 0 -110 0 3 -662z"/>
<path d="M904 2176 c-3 -7 -3 -294 -1 -637 4 -687 2 -662 68 -799 44 -89 170
-215 259 -258 92 -45 171 -63 277 -63 175 0 291 48 419 176 63 62 89 97 116
155 64 135 63 123 63 810 l0 625 -598 3 c-499 2 -598 0 -603 -12z"/>
</g>
</svg>
