<svg id="Capa_1" fill='#FF5D24' enable-background="new 0 0 512 512" height="512" viewBox="0 0 512 512" width="512" xmlns="http://www.w3.org/2000/svg"><circle cx="256" cy="256" r="10"/><path d="m472 216h-30.245c-4.805-22.31-13.722-43.826-26.135-63.056l20.161-20.153c15.59-15.591 15.591-40.967-.003-56.575-15.603-15.588-40.979-15.587-56.571.004l-20.151 20.16c-19.227-12.412-40.745-21.33-63.056-26.135v-26.731c0-5.523-4.477-10-10-10s-10 4.477-10 10v23.534c-6.954-.724-13.979-1.067-21-1.031-6.355.033-12.707.376-19 1.031v-23.534c0-5.523-4.477-10-10-10s-10 4.477-10 10v26.731c-22.31 4.805-43.826 13.722-63.056 26.135l-20.153-20.161c-15.591-15.59-40.968-15.591-56.575.003-15.589 15.602-15.587 40.978.004 56.57l20.159 20.151c-12.411 19.228-21.329 40.746-26.134 63.057h-30.245c-22.056 0-40 17.944-40 40s17.944 40 40 40h30.252c4.8 22.322 13.718 43.839 26.13 63.053l-20.164 20.156c-15.59 15.591-15.591 40.967.003 56.575 15.599 15.585 40.975 15.591 56.571-.004l20.154-20.162c10.429 6.752 21.492 12.474 33.054 17.061v59.321h-20c-5.523 0-10 4.477-10 10s4.477 10 10 10h180c5.523 0 10-4.477 10-10s-4.477-10-10-10h-20v-59.321c11.564-4.587 22.628-10.31 33.054-17.06l20.155 20.163c15.59 15.589 40.967 15.591 56.575-.003 15.588-15.602 15.587-40.979-.004-56.571l-20.163-20.155c12.416-19.22 21.334-40.739 26.131-63.053h30.252c22.056 0 40-17.944 40-40s-17.944-40-40-40zm-78.649-125.639c7.796-7.796 20.487-7.795 28.285-.003 7.797 7.804 7.799 20.495.004 28.29l-17.895 17.888c-8.447-10.433-17.804-19.799-28.281-28.281zm-24.426 38.572-28.342 28.342c-23.537-20.236-53.208-31.275-84.583-31.275-31.376 0-61.048 11.04-84.583 31.275l-28.342-28.342c29.939-26.608 68.922-42.429 110.925-42.91 43.615-.5 84.079 15.496 114.925 42.91zm-102.925 57.78v-40.26c22.305 1.997 43.21 10.656 60.389 25.016l-28.465 28.465c-9.388-7.046-20.308-11.569-31.924-13.221zm-51.923 13.222-28.466-28.466c17.177-14.359 38.083-23.019 60.389-25.016v40.26c-11.614 1.652-22.534 6.174-31.923 13.222zm-28.077 140.912c-22.479-18.613-36.839-45.624-39.529-74.847h39.529zm.713-94.847h-40.26c1.997-22.305 10.656-43.21 25.016-60.389l28.465 28.465c-7.046 9.388-11.569 20.309-13.221 31.924zm139.287 19.99h39.529c-2.691 29.233-17.05 56.244-39.529 74.857zm-.713-19.99c-1.652-11.614-6.175-22.534-13.222-31.923l28.466-28.466c14.359 17.177 23.019 38.083 25.016 60.389zm-234.929-155.636c7.802-7.798 20.494-7.799 28.29-.004l17.888 17.895c-10.451 8.462-19.816 17.825-28.281 28.281l-17.894-17.887c-7.796-7.796-7.794-20.487-.003-28.285zm-70.358 165.636c0-11.028 8.972-20 20-20h27.044c-.693 6.627-1.044 13.318-1.044 20 0 6.695.351 13.387 1.045 20h-27.045c-11.028 0-20-8.972-20-20zm98.649 165.639c-7.797 7.796-20.488 7.794-28.285.003-7.797-7.804-7.799-20.495-.004-28.29l17.893-17.886c8.416 10.41 17.878 19.872 28.28 28.281zm-32.649-165.639c0-42.702 15.87-82.474 42.933-112.925l28.342 28.342c-20.236 23.537-31.275 53.208-31.275 84.583 0 44.311 22.853 85.748 60 109.546v45.394c-60.777-27.507-100-87.92-100-154.94zm120 236v-236c0-27.621 22.373-50 50-50 27.621 0 50 22.373 50 50v236zm120-126.454c37.147-23.798 60-65.235 60-109.546 0-31.376-11.04-61.048-31.275-84.583l28.342-28.342c27.992 31.495 42.933 71.556 42.933 112.925 0 67.487-39.691 127.645-100 154.94zm95.642 56.09c-7.803 7.797-20.495 7.8-28.29.004l-17.886-17.893c10.405-8.412 19.867-17.875 28.281-28.281l17.892 17.885c7.796 7.796 7.794 20.487.003 28.285zm50.358-145.636h-27.045c.694-6.615 1.045-13.306 1.045-20 0-6.682-.351-13.373-1.044-20h27.044c11.028 0 20 8.972 20 20s-8.972 20-20 20z"/><circle cx="256" cy="10" r="10"/></svg>