<svg height="512pt" fill='#FF5D24' viewBox="0 -28 512.00018 512" width="512pt" xmlns="http://www.w3.org/2000/svg"><path d="m487.292969 185.527344c-4.3125-2.492188-8.847657-4.25-13.464844-5.324219-9.019531-41.195313-29.597656-79.027344-60.132813-109.5625-2.332031-2.332031-4.714843-4.597656-7.128906-6.8125.160156-.53125.324219-1.0625.46875-1.601563 3.417969-12.753906 1.664063-26.078124-4.9375-37.511718-13.628906-23.601563-43.917968-31.71875-67.523437-18.089844-4.261719 2.460938-8.070313 5.484375-11.347657 8.972656-21.46875-6.757812-44.078124-10.277344-67.226562-10.277344-23.171875 0-45.800781 3.527344-67.285156 10.292969-9.023438-9.601562-21.820313-15.613281-36.003906-15.613281-27.257813 0-49.433594 22.175781-49.433594 49.429688 0 5.011718.757812 9.847656 2.148437 14.40625-2.414062 2.214843-4.792969 4.472656-7.121093 6.804687-30.542969 30.542969-51.125 68.390625-60.140626 109.597656-12.835937 3.007813-24.453124 11.089844-31.550781 23.382813-13.628906 23.601562-5.511719 53.894531 18.089844 67.523437 4.3125 2.488281 8.851563 4.226563 13.464844 5.304688 9.015625 41.199219 29.597656 79.039062 60.136719 109.582031 2.332031 2.332031 4.714843 4.59375 7.128906 6.8125-.160156.53125-.324219 1.0625-.472656 1.601562-3.414063 12.753907-1.664063 26.074219 4.941406 37.507813 9.144531 15.839844 25.792968 24.707031 42.890625 24.707031 8.378906 0 16.867187-2.132812 24.632812-6.613281 4.261719-2.460937 8.070313-5.488281 11.347657-8.972656 21.46875 6.757812 44.074218 10.273437 67.226562 10.273437 23.171875 0 45.796875-3.523437 67.285156-10.292968 9.023438 9.601562 21.820313 15.613281 36.003906 15.613281 27.257813 0 49.433594-22.171875 49.433594-49.429688 0-5.007812-.757812-9.84375-2.148437-14.40625 2.414062-2.210937 4.789062-4.472656 7.121093-6.800781 30.546876-30.546875 51.128907-68.398438 60.140626-109.613281 12.835937-3.011719 24.457031-11.078125 31.550781-23.367188 13.628906-23.605469 5.511719-53.898437-18.09375-67.523437zm-108.574219 221.710937c0 10.710938-8.714844 19.425781-19.429688 19.425781-10.710937 0-19.429687-8.714843-19.429687-19.425781 0-10.714843 8.71875-19.429687 19.429687-19.429687 10.714844 0 19.429688 8.714844 19.429688 19.429687zm10.464844-39.332031c-8.308594-6.332031-18.667969-10.101562-29.894532-10.101562-27.257812 0-49.429687 22.175781-49.429687 49.433593 0 2.144531.152344 4.253907.417969 6.328125-17.226563 5.054688-35.4375 7.78125-54.277344 7.78125-18.835938 0-37.046875-2.726562-54.269531-7.78125 1.402343-10.710937-.71875-21.53125-6.210938-31.042968-13.628906-23.605469-43.921875-31.722657-67.527343-18.09375-1.816407 1.050781-3.542969 2.214843-5.191407 3.460937-26.285156-25.097656-45.5-57.527344-54.359375-93.96875 9.671875-4.019531 18.15625-11.117187 23.785156-20.871094 13.628907-23.605469 5.511719-53.898437-18.09375-67.527343-1.855468-1.070313-3.757812-1.992188-5.6875-2.800782 8.863282-36.4375 28.082032-68.863281 54.367188-93.960937 8.308594 6.332031 18.667969 10.101562 29.894531 10.101562 27.257813 0 49.433594-22.175781 49.433594-49.433593 0-2.144532-.152344-4.253907-.421875-6.324219 17.226562-5.058594 35.441406-7.785157 54.28125-7.785157 18.835938 0 37.046875 2.726563 54.269531 7.78125-1.40625 10.710938.71875 21.53125 6.210938 31.046876 9.144531 15.839843 25.792969 24.703124 42.890625 24.703124 8.378906 0 16.867187-2.128906 24.632812-6.613281 1.820313-1.046875 3.546875-2.210937 5.195313-3.460937 26.28125 25.097656 45.5 57.527344 54.359375 93.964844-9.675782 4.023437-18.15625 11.121093-23.789063 20.875-13.625 23.605468-5.511719 53.898437 18.09375 67.523437 1.859375 1.074219 3.757813 2.003906 5.6875 2.808594-8.859375 36.4375-28.082031 68.863281-54.367187 93.957031zm-226.757813 56.15625c-9.277343 5.355469-21.183593 2.167969-26.542969-7.109375-5.355468-9.28125-2.164062-21.183594 7.113282-26.542969 3.050781-1.761718 6.386718-2.597656 9.679687-2.597656 6.722657 0 13.265625 3.484375 16.859375 9.710938 2.597656 4.492187 3.285156 9.730468 1.941406 14.742187s-4.558593 9.203125-9.050781 11.796875zm-129.832031-205.441406c5.359375-9.28125 17.265625-12.46875 26.542969-7.113282 9.277343 5.355469 12.46875 17.261719 7.109375 26.539063-5.355469 9.277344-17.261719 12.46875-26.539063 7.113281-9.277343-5.355468-12.46875-17.261718-7.113281-26.539062zm100.6875-169.1875c0-10.714844 8.714844-19.429688 19.429688-19.429688 10.710937 0 19.429687 8.714844 19.429687 19.429688 0 10.710937-8.714844 19.425781-19.429687 19.425781-10.714844 0-19.429688-8.714844-19.429688-19.425781zm216.292969-16.828125c3.054687-1.761719 6.386719-2.597657 9.683593-2.597657 6.71875 0 13.265626 3.484376 16.859376 9.710938 2.59375 4.492188 3.28125 9.726562 1.9375 14.742188-1.339844 5.011718-4.558594 9.203124-9.050782 11.796874-9.277344 5.355469-21.1875 2.164063-26.539062-7.113281-2.597656-4.492187-3.285156-9.726562-1.941406-14.742187 1.34375-5.011719 4.558593-9.203125 9.050781-11.796875zm103.289062 212.554687c-9.277343-5.355468-12.464843-17.261718-7.109375-26.539062 3.59375-6.226563 10.136719-9.710938 16.855469-9.710938 3.296875 0 6.632813.835938 9.683594 2.597656 9.277343 5.355469 12.46875 17.265626 7.113281 26.542969-5.355469 9.273438-17.265625 12.464844-26.542969 7.109375zm0 0"/><path d="m310.09375 236.5c11.070312-12.648438 17.800781-29.1875 17.800781-47.28125 0-39.640625-32.25-71.890625-71.894531-71.890625-39.640625 0-71.894531 32.25-71.894531 71.890625 0 18.09375 6.734375 34.632812 17.804687 47.28125-15.320312 14.417969-24.914062 34.855469-24.914062 57.503906v25.667969h158.011718v-25.667969c-.003906-22.648437-9.597656-43.085937-24.914062-57.503906zm-102.90625 53.171875c1.25-14.230469 8.617188-26.726563 19.4375-34.859375 8.976562 4.035156 18.914062 6.300781 29.375 6.300781s20.398438-2.265625 29.375-6.300781c10.820312 8.132812 18.1875 20.628906 19.4375 34.859375zm6.921875-100.453125c0-23.097656 18.792969-41.890625 41.890625-41.890625s41.890625 18.792969 41.890625 41.890625c0 23.101562-18.792969 41.894531-41.890625 41.894531s-41.890625-18.792969-41.890625-41.894531zm0 0"/></svg>